{"title":"The Three Musketeers(2011)MPEG-4[DaScubaDude]","uid":15238967,"size":1222695997,"categoryP":"video","categoryS":"movies","magnet":"?xt=urn:btih:2ec09e6e21bd550b8aca2a44550f8f996760253a&amp;dn=The+Three+Musketeers%282011%29MPEG-4%5BDaScubaDude%5D&amp;tr=udp%3A%2F%2Ftracker.leechers-paradise.org%3A6969&amp;tr=udp%3A%2F%2Fzer0day.ch%3A1337&amp;tr=udp%3A%2F%2Fopen.demonii.com%3A1337&amp;tr=udp%3A%2F%2Ftracker.coppersurfer.tk%3A6969&amp;tr=udp%3A%2F%2Fexodus.desync.com%3A6969","seeders":1,"leechers":0,"uploader":"dascuba","files":1,"time":1467918424,"description":"The Three Musketeers (2011)\r\nPG-13 | 1h 50min | Action, Adventure, Romance | 21 October 2011 (USA)\r\nThe hot-headed young D'Artagnan along with three former legendary but now down on their luck Musketeers must unite and defeat a beautiful double agent and her villainous employer from seizing the French throne and engulfing Europe in war.\r\nDirector: Paul W.S. Anderson\r\nWriters: Alex Litvak (screenplay), Andrew Davies (screenplay) |\r\nStars: Logan Lerman, Matthew Macfadyen, Ray Stevenson |\r\n\r\nGeneral\r\nComplete name                            : 3MusketeersTHE_THREE_MUSKETEERS_Title23.mp4\r\nFormat                                   : MPEG-4\r\nFormat profile                           : Base Media\r\nCodec ID                                 : isom (isom/iso2/avc1/mp41)\r\nFile size                                : 1.14 GiB\r\nDuration                                 : 1h 50mn\r\nOverall bit rate mode                    : Variable\r\nOverall bit rate                         : 1 475 Kbps\r\nMovie name                               : THE_THREE_MUSKETEERS\r\nGenre                                    : Adventure\r\nWriting application                      : Lavf54.6.100\r\n\r\nVideo\r\nID                                       : 1\r\nFormat                                   : AVC\r\nFormat/Info                              : Advanced Video Codec\r\nFormat profile                           :   \r\nFormat settings, CABAC                   : No\r\nFormat settings, ReFrames                : 6 frames\r\nCodec ID                                 : avc1\r\nCodec ID/Info                            : Advanced Video Coding\r\nDuration                                 : 1h 50mn\r\nBit rate                                 : 1 201 Kbps\r\nWidth                                    : 720 pixels\r\nHeight                                   : 404 pixels\r\nDisplay aspect ratio                     : 16:9\r\nFrame rate mode                          : Constant\r\nFrame rate                               : 29.970 (30000/1001) fps\r\nColor space                              : YUV\r\nChroma subsampling                       : 4:2:0\r\nBit depth                                : 8 bits\r\nScan type                                : Progressive\r\nBits/(Pixel*Frame)                       : 0.138\r\nStream size                              : 950 MiB (81%)\r\n\r\nAudio\r\nID                                       : 2\r\nFormat                                   : AAC\r\nFormat/Info                              : Advanced Audio Codec\r\nFormat profile                           : LC\r\nCodec ID                                 : 40\r\nDuration                                 : 1h 50mn\r\nBit rate mode                            : Variable\r\nBit rate                                 : 265 Kbps\r\nMaximum bit rate                         : 383 Kbps\r\nChannel(s)                               : 2 channels\r\nChannel(s)_Original                      : 6 channels\r\nChannel positions                        : Front: L C R, Side: L R, LFE\r\nSampling rate                            : 44.1 KHz\r\nFrame rate                               : 43.066 fps (1024 spf)\r\nCompression mode                         : Lossy\r\nStream size                              : 211 MiB (18%)\r\nDefault                                  : Yes\r\nAlternate group                          : 1","torrent":{"xt":"urn:btih:2ec09e6e21bd550b8aca2a44550f8f996760253a","amp;dn":"The+Three+Musketeers%282011%29MPEG-4%5BDaScubaDude%5D","amp;tr":["udp%3A%2F%2Ftracker.leechers-paradise.org%3A6969","udp%3A%2F%2Fzer0day.ch%3A1337","udp%3A%2F%2Fopen.demonii.com%3A1337","udp%3A%2F%2Ftracker.coppersurfer.tk%3A6969","udp%3A%2F%2Fexodus.desync.com%3A6969"],"infoHash":"2ec09e6e21bd550b8aca2a44550f8f996760253a","infoHashBuffer":{"type":"Buffer","data":[46,192,158,110,33,189,85,11,138,202,42,68,85,15,143,153,103,96,37,58]},"announce":[],"urlList":[]}}